<svg width="1024" height="1024" viewBox="0 0 1024 1024" fill="none" xmlns="http://www.w3.org/2000/svg">
<path d="M352.818 555.205V457.182H378.295V623H352.818V594.932H351.091C347.205 603.352 341.159 610.513 332.955 616.415C324.75 622.244 314.386 625.159 301.864 625.159C291.5 625.159 282.288 622.892 274.227 618.358C266.167 613.752 259.833 606.843 255.227 597.631C250.621 588.347 248.318 576.652 248.318 562.545V457.182H273.795V560.818C273.795 572.909 277.178 582.553 283.943 589.75C290.78 596.947 299.489 600.545 310.068 600.545C316.402 600.545 322.843 598.926 329.392 595.688C336.013 592.449 341.555 587.483 346.017 580.79C350.551 574.097 352.818 565.568 352.818 555.205ZM579.55 471C577.175 463.731 574.044 457.218 570.158 451.46C566.343 445.631 561.773 440.665 556.447 436.562C551.194 432.46 545.22 429.33 538.527 427.17C531.834 425.011 524.493 423.932 516.504 423.932C503.406 423.932 491.495 427.314 480.771 434.08C470.048 440.845 461.519 450.812 455.186 463.983C448.853 477.153 445.686 493.311 445.686 512.455C445.686 531.598 448.889 547.756 455.294 560.926C461.699 574.097 470.372 584.064 481.311 590.83C492.25 597.595 504.557 600.977 518.232 600.977C530.898 600.977 542.054 598.278 551.697 592.881C561.413 587.411 568.97 579.71 574.368 569.778C579.838 559.775 582.572 548.008 582.572 534.477L590.777 536.205H524.277V512.455H608.482V536.205C608.482 554.413 604.595 570.246 596.822 583.705C589.122 597.163 578.47 607.598 564.868 615.011C551.338 622.352 535.792 626.023 518.232 626.023C498.656 626.023 481.455 621.417 466.629 612.205C451.875 602.992 440.36 589.894 432.084 572.909C423.879 555.924 419.777 535.773 419.777 512.455C419.777 494.966 422.116 479.241 426.794 465.278C431.544 451.244 438.237 439.297 446.874 429.438C455.51 419.578 465.73 412.021 477.533 406.767C489.336 401.513 502.326 398.886 516.504 398.886C528.163 398.886 539.031 400.65 549.107 404.176C559.254 407.631 568.286 412.561 576.203 418.966C584.192 425.299 590.849 432.892 596.175 441.744C601.5 450.525 605.171 460.277 607.186 471H579.55ZM718.244 626.455C702.699 626.455 689.313 622.784 678.085 615.443C666.858 608.102 658.222 597.991 652.176 585.108C646.131 572.225 643.108 557.508 643.108 540.955C643.108 524.114 646.203 509.252 652.392 496.369C658.653 483.415 667.362 473.303 678.517 466.034C689.744 458.693 702.843 455.023 717.812 455.023C729.472 455.023 739.979 457.182 749.335 461.5C758.691 465.818 766.356 471.864 772.33 479.636C778.303 487.409 782.009 496.477 783.449 506.841H757.972C756.028 499.284 751.71 492.591 745.017 486.761C738.396 480.86 729.472 477.909 718.244 477.909C708.313 477.909 699.604 480.5 692.119 485.682C684.706 490.792 678.913 498.025 674.739 507.381C670.636 516.665 668.585 527.568 668.585 540.091C668.585 552.902 670.6 564.057 674.631 573.557C678.733 583.057 684.491 590.434 691.903 595.688C699.388 600.941 708.169 603.568 718.244 603.568C724.866 603.568 730.875 602.417 736.273 600.114C741.67 597.811 746.241 594.5 749.983 590.182C753.725 585.864 756.388 580.682 757.972 574.636H783.449C782.009 584.424 778.447 593.241 772.761 601.085C767.148 608.858 759.699 615.047 750.415 619.653C741.203 624.188 730.479 626.455 718.244 626.455Z" fill="black"/>
</svg>
