<svg width="1024" height="1024" viewBox="0 0 1024 1024" fill="none" xmlns="http://www.w3.org/2000/svg">
<rect width="1024" height="1024" fill="white"/>
<path d="M273.205 575.645V430.545H310.918V676H273.205V634.452H270.648C264.895 646.916 255.946 657.516 243.801 666.252C231.656 674.881 216.315 679.196 197.778 679.196C182.438 679.196 168.801 675.84 156.869 669.129C144.938 662.31 135.563 652.083 128.744 638.447C121.926 624.704 118.517 607.392 118.517 586.511V430.545H156.23V583.955C156.23 601.852 161.237 616.128 171.251 626.781C181.372 637.435 194.263 642.761 209.923 642.761C219.298 642.761 228.833 640.364 238.528 635.57C248.329 630.776 256.532 623.425 263.137 613.518C269.849 603.61 273.205 590.986 273.205 575.645ZM608.827 451C605.311 440.24 600.677 430.599 594.924 422.076C589.278 413.447 582.513 406.096 574.629 400.023C566.852 393.951 558.01 389.317 548.102 386.121C538.195 382.925 527.328 381.327 515.503 381.327C496.114 381.327 478.482 386.334 462.609 396.348C446.735 406.362 434.111 421.117 424.736 440.613C415.361 460.109 410.673 484.026 410.673 512.364C410.673 540.702 415.414 564.619 424.896 584.114C434.377 603.61 447.215 618.365 463.408 628.379C479.601 638.393 497.818 643.401 518.06 643.401C536.81 643.401 553.323 639.406 567.598 631.415C581.98 623.319 593.166 611.92 601.156 597.218C609.253 582.41 613.301 564.991 613.301 544.963L625.446 547.52H527.009V512.364H651.654V547.52C651.654 574.473 645.901 597.911 634.395 617.832C622.996 637.754 607.229 653.202 587.094 664.175C567.066 675.041 544.054 680.474 518.06 680.474C489.083 680.474 463.621 673.656 441.675 660.02C419.835 646.384 402.79 626.994 390.539 601.852C378.394 576.71 372.321 546.881 372.321 512.364C372.321 486.476 375.784 463.198 382.708 442.531C389.74 421.756 399.647 404.072 412.431 389.477C425.215 374.881 440.343 363.695 457.815 355.918C475.286 348.141 494.516 344.253 515.503 344.253C532.762 344.253 548.848 346.863 563.763 352.083C578.784 357.197 592.154 364.494 603.873 373.976C615.698 383.351 625.553 394.59 633.436 407.694C641.32 420.691 646.753 435.126 649.736 451H608.827ZM814.131 681.114C791.12 681.114 771.305 675.68 754.685 664.814C738.066 653.947 725.282 638.979 716.333 619.91C707.384 600.84 702.91 579.054 702.91 554.551C702.91 529.622 707.491 507.623 716.653 488.553C725.921 469.377 738.812 454.409 755.325 443.649C771.944 432.783 791.333 427.349 813.492 427.349C830.751 427.349 846.305 430.545 860.154 436.938C874.004 443.33 885.349 452.278 894.192 463.784C903.034 475.29 908.521 488.713 910.651 504.054H872.938C870.062 492.868 863.67 482.96 853.762 474.331C843.961 465.595 830.751 461.227 814.131 461.227C799.43 461.227 786.539 465.062 775.46 472.733C764.487 480.297 755.911 491.004 749.732 504.853C743.659 518.596 740.623 534.736 740.623 553.273C740.623 572.236 743.606 588.749 749.572 602.811C755.644 616.874 764.167 627.793 775.14 635.57C786.219 643.347 799.217 647.236 814.131 647.236C823.933 647.236 832.828 645.531 840.818 642.122C848.808 638.713 855.573 633.812 861.113 627.42C866.653 621.028 870.594 613.358 872.938 604.409H910.651C908.521 618.898 903.247 631.948 894.831 643.56C886.521 655.066 875.495 664.228 861.752 671.046C848.116 677.758 832.242 681.114 814.131 681.114Z" fill="black"/>
</svg>
