<svg width="1284" height="2778" viewBox="0 0 1284 2778" fill="none" xmlns="http://www.w3.org/2000/svg">
<path d="M562.227 1410.99V1363.27H574.631V1444H562.227V1430.34H561.386C559.494 1434.43 556.551 1437.92 552.557 1440.79C548.563 1443.63 543.517 1445.05 537.42 1445.05C532.375 1445.05 527.89 1443.95 523.966 1441.74C520.042 1439.5 516.958 1436.13 514.716 1431.65C512.473 1427.13 511.352 1421.44 511.352 1414.57V1363.27H523.756V1413.73C523.756 1419.61 525.402 1424.31 528.696 1427.81C532.025 1431.32 536.264 1433.07 541.415 1433.07C544.498 1433.07 547.634 1432.28 550.822 1430.7C554.046 1429.13 556.744 1426.71 558.916 1423.45C561.124 1420.19 562.227 1416.04 562.227 1410.99ZM672.61 1370C671.453 1366.46 669.929 1363.29 668.037 1360.49C666.18 1357.65 663.955 1355.23 661.363 1353.23C658.805 1351.24 655.897 1349.71 652.638 1348.66C649.38 1347.61 645.806 1347.09 641.917 1347.09C635.54 1347.09 629.741 1348.73 624.52 1352.03C619.3 1355.32 615.148 1360.17 612.064 1366.58C608.981 1373 607.439 1380.86 607.439 1390.18C607.439 1399.5 608.998 1407.37 612.117 1413.78C615.235 1420.19 619.457 1425.04 624.783 1428.34C630.109 1431.63 636.1 1433.28 642.757 1433.28C648.924 1433.28 654.355 1431.96 659.05 1429.34C663.78 1426.67 667.459 1422.92 670.087 1418.09C672.75 1413.22 674.081 1407.49 674.081 1400.9L678.076 1401.74H645.701V1390.18H686.695V1401.74C686.695 1410.61 684.803 1418.32 681.019 1424.87C677.27 1431.42 672.084 1436.5 665.462 1440.11C658.875 1443.68 651.307 1445.47 642.757 1445.47C633.227 1445.47 624.853 1443.23 617.635 1438.74C610.453 1434.26 604.846 1427.88 600.817 1419.61C596.823 1411.34 594.826 1401.53 594.826 1390.18C594.826 1381.67 595.964 1374.01 598.242 1367.21C600.554 1360.38 603.813 1354.57 608.017 1349.77C612.222 1344.97 617.197 1341.29 622.944 1338.73C628.69 1336.17 635.014 1334.89 641.917 1334.89C647.593 1334.89 652.883 1335.75 657.789 1337.47C662.729 1339.15 667.126 1341.55 670.98 1344.67C674.87 1347.75 678.111 1351.45 680.703 1355.76C683.296 1360.03 685.083 1364.78 686.064 1370H672.61ZM740.132 1445.68C732.564 1445.68 726.047 1443.89 720.581 1440.32C715.115 1436.75 710.911 1431.82 707.967 1425.55C705.024 1419.28 703.553 1412.12 703.553 1404.06C703.553 1395.86 705.059 1388.62 708.072 1382.35C711.121 1376.04 715.36 1371.12 720.791 1367.58C726.257 1364.01 732.634 1362.22 739.922 1362.22C745.598 1362.22 750.714 1363.27 755.268 1365.38C759.823 1367.48 763.555 1370.42 766.463 1374.2C769.371 1377.99 771.176 1382.4 771.876 1387.45H759.473C758.527 1383.77 756.425 1380.51 753.166 1377.67C749.943 1374.8 745.598 1373.36 740.132 1373.36C735.297 1373.36 731.057 1374.62 727.413 1377.15C723.804 1379.64 720.984 1383.16 718.952 1387.71C716.955 1392.23 715.956 1397.54 715.956 1403.64C715.956 1409.87 716.937 1415.3 718.899 1419.93C720.896 1424.55 723.699 1428.15 727.308 1430.7C730.952 1433.26 735.227 1434.54 740.132 1434.54C743.356 1434.54 746.281 1433.98 748.909 1432.86C751.537 1431.74 753.762 1430.12 755.584 1428.02C757.406 1425.92 758.702 1423.4 759.473 1420.45H771.876C771.176 1425.22 769.441 1429.51 766.673 1433.33C763.94 1437.12 760.314 1440.13 755.794 1442.37C751.309 1444.58 746.089 1445.68 740.132 1445.68Z" fill="black"/>
</svg>
